<svg xmlns="http://www.w3.org/2000/svg" viewBox="0 0 1920 1080" preserveAspectRatio="xMidYMid slice">
  <defs>
    <radialGradient id="core" cx="50%" cy="42%" r="60%"><stop offset="0" stop-color="#183d82" stop-opacity=".72"/><stop offset=".38" stop-color="#0a1d47" stop-opacity=".42"/><stop offset="1" stop-color="#020713" stop-opacity="0"/></radialGradient>
    <linearGradient id="floor" x1="0" x2="0" y1="0" y2="1"><stop stop-color="#0d3471" stop-opacity="0"/><stop offset="1" stop-color="#1268cf" stop-opacity=".33"/></linearGradient>
    <filter id="glow"><feGaussianBlur stdDeviation="5"/></filter>
    <pattern id="grid" width="80" height="40" patternUnits="userSpaceOnUse"><path d="M0 40H80M0 0V40" fill="none" stroke="#3d96f4" stroke-opacity=".16" stroke-width="1"/></pattern>
  </defs>
  <rect width="1920" height="1080" fill="#030916"/>
  <rect width="1920" height="1080" fill="url(#core)"/>
  <ellipse cx="960" cy="824" rx="820" ry="245" fill="url(#floor)"/>
  <path d="M0 700H1920V1080H0Z" fill="url(#grid)" opacity=".75"/>
  <g fill="#47dfff" opacity=".8" filter="url(#glow)">
    <circle cx="90" cy="715" r="3"/><circle cx="146" cy="764" r="2"/><circle cx="212" cy="688" r="2"/><circle cx="1710" cy="718" r="3"/><circle cx="1770" cy="778" r="2"/><circle cx="1845" cy="692" r="2"/>
  </g>
  <g fill="#ff6a75" opacity=".5"><circle cx="290" cy="820" r="2"/><circle cx="1640" cy="818" r="2"/><circle cx="151" cy="875" r="1.5"/><circle cx="1782" cy="866" r="1.5"/></g>
  <path d="M0 822C332 692 510 917 768 799S1212 703 1500 818s316-50 420-78" fill="none" stroke="#57ccff" stroke-opacity=".26" stroke-width="2"/>
</svg>
